<svg id="Capa_1" enable-background="new 0 0 512.5 512.5" height="512" viewBox="0 0 512.5 512.5" width="512" xmlns="http://www.w3.org/2000/svg"><g><g><g clip-rule="evenodd" fill-rule="evenodd"><path d="m83.75 415.001 59.999 59.999v-59.999z" fill="#bbbbbe"/><path d="m143.749 475h239.793c-41.326-.113-74.792-33.648-74.792-75 0-41.421 33.579-75 75-75v-235h-45.001c0 8.244-6.756 15-15 15h-179.998c-8.244 0-15-6.75-15-15h-45.001v325h59.999z" fill="#f2f2f4"/><circle cx="383.75" cy="400" fill="#df95c0" r="75"/><path d="m383.75 325c10.667 0 20.813 2.227 30 6.241v-271.241h-75.001v30h45.001zm-330 179.75v-444.75h75.001v30h-45.001v325l59.999 60h240.001c10.667 0 20.813-2.227 30-6.241v35.99h-360z" fill="#f0d5b3"/><path d="m143.751 105h179.998c8.244 0 15-6.756 15-15v-30c0-8.244-6.75-15-15-15h-67.499v-15c0-11.282-8.305-20.625-19.134-22.25h-6.731c-10.83 1.625-19.135 10.968-19.135 22.25v15h-67.499c-8.25 0-15 6.75-15 15v30c0 8.25 6.756 15 15 15z" fill="#f0d5b3"/><path d="m53.75 60.25h22.5v444.749h-22.5z" fill="#e8bc85"/><path d="m143.751 105.25h179.998c8.244 0 15-6.756 15-15v-22.5c0 8.244-6.756 15-15 15h-179.998c-8.244 0-15-6.75-15-15v22.5c0 8.25 6.756 15 15 15z" fill="#e8bc85"/><path d="m83.75 90.25h22.5v325h-22.5z" fill="#bbbbbe"/><path d="m308.75 400.25c0 46.052 41.016 80.977 86.243 74.159-36.081-5.431-63.744-36.564-63.744-74.159s27.663-68.728 63.744-74.159c-45.227-6.818-86.243 28.107-86.243 74.159z" fill="#c74892"/></g><g><path d="m361.25 157.5h-15v-15h15zm0-30h-15v-15h15z" fill="#fff"/></g></g><g><path d="m346.25 497.5h15v15h-15z"/><path d="m466.25 400c0-31.991-18.316-59.767-45-73.447v-274.053h-76.291c-3.096-8.729-11.433-15-21.21-15h-59.999v-7.5c0-16.542-13.458-30-30-30s-30 13.458-30 30v7.5h-59.999c-9.777 0-18.114 6.271-21.21 15h-76.291v460h285v-15h-270v-430h60.001v15h-45.001v45.25h15v-30.25h31.291c3.096 8.729 11.433 15 21.21 15h179.998c9.777 0 18.114-6.271 21.21-15h31.291v220.356c-41.987 3.804-75 39.182-75 82.144 0 27.881 13.917 52.559 35.153 67.5h-185.154v-60h-59.999v-264.75h-15v275.357l64.393 64.393h243.085.022c7.801 0 15.342-1.112 22.5-3.144v18.144h-30v15h45v-39.053c26.684-13.68 45-41.456 45-73.447zm-330.001 56.893-34.393-34.393h34.393zm195-366.893c0 4.135-3.364 7.5-7.5 7.5h-179.998c-4.136 0-7.5-3.364-7.5-7.5v-30c0-4.135 3.364-7.5 7.5-7.5h74.999v-22.5c0-8.271 6.729-15 15-15s15 6.729 15 15v22.5h74.999c4.136 0 7.5 3.364 7.5 7.5zm15-7.5v-15h60.001v253.144c-4.837-1.374-9.848-2.321-15-2.788v-235.356zm37.501 385c-37.22 0-67.5-30.28-67.5-67.5s30.28-67.5 67.5-67.5 67.5 30.28 67.5 67.5-30.28 67.5-67.5 67.5z"/><path d="m158.75 286.25h150v15h-150z"/><path d="m158.75 248.75h150v15h-150z"/><path d="m196.249 323.749h75.002v15h-75.002z"/><path d="m158.75 211.25h150v15h-150z"/><path d="m196.249 173.751h75.002v15h-75.002z"/><path d="m408.446 364.697-24.696 24.697-24.696-24.697-10.608 10.606 24.698 24.697-24.698 24.697 10.608 10.606 24.696-24.697 24.696 24.697 10.608-10.606-24.698-24.697 24.698-24.697z"/></g></g></svg>